<svg width="128" height="128" viewBox="0 0 128 128" xmlns="http://www.w3.org/2000/svg"><path d="M63.99 128c-1.71 0-3.42-.45-4.92-1.32l-15.68-9.27c-2.34-1.31-1.2-1.77-.43-2.04 3.12-1.08 3.75-1.33 7.08-3.22.35-.2.81-.12 1.16.09l12.04 7.15c.44.24 1.05.24 1.45 0l46.93-27.07c.44-.25.72-.75.72-1.27V36.91c0-.53-.28-1.02-.73-1.29L64.72 8.57c-.43-.25-1.01-.25-1.45 0L16.4 35.63c-.45.26-.74.78-.74 1.28v54.13c0 .52.29 1.01.74 1.25l12.85 7.43c6.98 3.49 11.24-.62 11.24-4.75V41.55c0-.76.61-1.35 1.37-1.35h5.95c.74 0 1.36.6 1.36 1.35v53.44c0 9.31-5.07 14.64-13.89 14.64-2.71 0-4.85 0-10.81-2.94l-12.31-6.96a9.91 9.91 0 0 1-4.92-8.56V36.91c0-3.52 1.88-6.8 4.92-8.55L59.09 1.25c2.97-1.68 6.92-1.68 9.86 0l46.92 27.11a9.9 9.9 0 0 1 4.93 8.55v54.26a9.93 9.93 0 0 1-4.93 8.56l-46.92 27.08c-1.51.74-3.23 1.19-4.96 1.19m37.87-53.37c0-10.13-6.85-12.83-21.26-14.75-14.57-1.93-16.05-2.92-16.05-6.33 0-2.82 1.25-6.58 12.05-6.58 9.64 0 13.2 2.08 14.65 8.58.13.61.69 1.06 1.32 1.06h6.09a1.36 1.36 0 0 0 1.35-1.48c-.95-11.19-8.38-16.41-23.41-16.41-13.38 0-21.35 5.64-21.35 15.11 0 10.27 7.94 13.11 20.79 14.38 15.37 1.5 16.56 3.75 16.56 6.78 0 5.24-4.21 7.48-14.1 7.48-12.42 0-15.16-3.12-16.06-9.3-.11-.66-.67-1.15-1.35-1.15h-6.07c-.75 0-1.36.6-1.36 1.35 0 7.91 4.3 17.33 24.84 17.33 14.84 0 23.36-5.84 23.36-16.07"/></svg>